<?xml version="1.0" encoding="UTF-8" standalone="no" ?>
<!DOCTYPE svg PUBLIC "-//W3C//DTD SVG 1.1//EN" "http://www.w3.org/Graphics/SVG/1.1/DTD/svg11.dtd">
<svg xmlns="http://www.w3.org/2000/svg" xmlns:xlink="http://www.w3.org/1999/xlink" version="1.1" width="1080" height="1080" viewBox="0 0 1080 1080" xml:space="preserve">
<desc>Created with Fabric.js 5.2.4</desc>
<defs>
</defs>
<g transform="matrix(1 0 0 1 540 540)" id="fb3b4739-4ad6-4e65-ae41-465b7cc680bc"  >
</g>
<g transform="matrix(1 0 0 1 540 540)" id="212313eb-1dfb-4dac-93fe-a48a95ef890c"  >
<rect style="stroke: none; stroke-width: 1; stroke-dasharray: none; stroke-linecap: butt; stroke-dashoffset: 0; stroke-linejoin: miter; stroke-miterlimit: 4; fill: rgb(255,255,255); fill-rule: nonzero; opacity: 1; visibility: hidden;" vector-effect="non-scaling-stroke"  x="-540" y="-540" rx="0" ry="0" width="1080" height="1080" />
</g>
<g transform="matrix(1 0 0 1 540 540)"  >
<g style="" vector-effect="non-scaling-stroke"   >
		<g transform="matrix(0.63 0 0 0.63 5.12 4.08)"  >
<path style="stroke: none; stroke-width: 1; stroke-dasharray: none; stroke-linecap: butt; stroke-dashoffset: 0; stroke-linejoin: miter; stroke-miterlimit: 4; fill: rgb(253,254,253); fill-rule: nonzero; opacity: 1;" vector-effect="non-scaling-stroke"  transform=" translate(-1024, -816)" d="M 0 0 L 2048 0 L 2048 1632 L 0 1632 z" stroke-linecap="round" />
</g>
		<g transform="matrix(0.63 0 0 0.63 6.79 -14.17)"  >
<path style="stroke: none; stroke-width: 1; stroke-dasharray: none; stroke-linecap: butt; stroke-dashoffset: 0; stroke-linejoin: miter; stroke-miterlimit: 4; fill: rgb(253,254,253); fill-rule: nonzero; opacity: 1;" vector-effect="non-scaling-stroke"  transform=" translate(-31, -480.5)" d="M 0 0 L 55 0 L 95 3 L 132 9 L 160 15 L 188 23 L 208 30 L 227 38 L 251 49 L 270 59 L 287 69 L 315 88 L 328 98 L 337 105 L 348 114 L 361 126 L 383 148 L 390 156 L 399 166 L 412 181 L 424 197 L 441 223 L 454 244 L 471 277 L 480 296 L 493 331 L 500 354 L 509 394 L 514 429 L 515 441 L 515 519 L 513 541 L 509 568 L 501 603 L 493 629 L 483 655 L 468 689 L 457 712 L 445 732 L 436 745 L 422 765 L 408 783 L 398 794 L 389 805 L 379 815 L 372 823 L 363 832 L 355 839 L 341 851 L 328 861 L 312 873 L 294 886 L 270 900 L 245 912 L 221 922 L 198 931 L 173 939 L 142 948 L 116 954 L 88 958 L 53 961 L 13 961 L -25 958 L -51 954 L -74 950 L -103 942 L -132 933 L -163 921 L -187 910 L -203 902 L -218 893 L -242 878 L -254 870 L -268 860 L -279 851 L -294 838 L -320 812 L -327 804 L -337 793 L -346 782 L -359 765 L -371 748 L -383 730 L -392 715 L -410 681 L -422 654 L -432 626 L -439 604 L -447 572 L -449 547 L -451 530 L -453 494 L -453 461 L -451 426 L -447 393 L -442 370 L -435 345 L -425 316 L -412 285 L -397 252 L -386 234 L -364 201 L -357 190 L -347 177 L -335 164 L -323 150 L -299 126 L -291 119 L -277 107 L -264 97 L -243 81 L -220 66 L -198 54 L -169 40 L -148 31 L -128 23 L -109 18 L -98 15 L -80 10 L -55 5 L -24 2 z" stroke-linecap="round" />
</g>
		<g transform="matrix(0.63 0 0 0.63 6.79 -14.17)"  >
<path style="stroke: none; stroke-width: 1; stroke-dasharray: none; stroke-linecap: butt; stroke-dashoffset: 0; stroke-linejoin: miter; stroke-miterlimit: 4; fill: rgb(146,157,164); fill-rule: nonzero; opacity: 1;" vector-effect="non-scaling-stroke"  transform=" translate(-31, -480.5)" d="M 0 0 L 55 0 L 95 3 L 132 9 L 160 15 L 188 23 L 208 30 L 227 38 L 251 49 L 270 59 L 287 69 L 315 88 L 328 98 L 337 105 L 348 114 L 361 126 L 383 148 L 390 156 L 399 166 L 412 181 L 424 197 L 441 223 L 454 244 L 471 277 L 480 296 L 493 331 L 500 354 L 509 394 L 514 429 L 515 441 L 515 519 L 513 541 L 509 568 L 501 603 L 493 629 L 483 655 L 468 689 L 457 712 L 445 732 L 436 745 L 422 765 L 408 783 L 398 794 L 389 805 L 379 815 L 372 823 L 363 832 L 355 839 L 341 851 L 328 861 L 312 873 L 294 886 L 270 900 L 245 912 L 221 922 L 198 931 L 173 939 L 142 948 L 116 954 L 88 958 L 53 961 L 13 961 L -25 958 L -51 954 L -74 950 L -103 942 L -132 933 L -163 921 L -187 910 L -203 902 L -218 893 L -242 878 L -254 870 L -268 860 L -279 851 L -294 838 L -320 812 L -327 804 L -337 793 L -346 782 L -359 765 L -371 748 L -383 730 L -392 715 L -410 681 L -422 654 L -432 626 L -439 604 L -447 572 L -449 547 L -451 530 L -453 494 L -453 461 L -451 426 L -447 393 L -442 370 L -435 345 L -425 316 L -412 285 L -397 252 L -386 234 L -364 201 L -357 190 L -347 177 L -335 164 L -323 150 L -299 126 L -291 119 L -277 107 L -264 97 L -243 81 L -220 66 L -198 54 L -169 40 L -148 31 L -128 23 L -109 18 L -98 15 L -80 10 L -55 5 L -24 2 z M 4 29 L -32 32 L -55 36 L -86 44 L -121 55 L -155 69 L -178 80 L -201 93 L -221 105 L -237 116 L -253 129 L -273 147 L -305 179 L -312 187 L -323 200 L -335 216 L -342 226 L -358 251 L -366 264 L -378 285 L -387 304 L -393 319 L -403 351 L -409 373 L -415 402 L -420 432 L -422 463 L -422 494 L -420 528 L -416 559 L -410 589 L -400 624 L -390 650 L -382 667 L -372 686 L -356 713 L -345 730 L -333 748 L -322 762 L -310 775 L -301 785 L -279 807 L -271 814 L -257 827 L -246 836 L -228 849 L -211 860 L -188 873 L -165 885 L -141 896 L -112 907 L -83 916 L -67 920 L -45 925 L -26 928 L 2 931 L 59 931 L 90 928 L 117 923 L 144 916 L 201 897 L 224 887 L 255 871 L 273 860 L 293 846 L 307 836 L 324 822 L 336 811 L 344 804 L 370 778 L 377 770 L 389 755 L 400 741 L 412 724 L 427 700 L 439 678 L 448 657 L 456 637 L 468 601 L 475 573 L 482 525 L 483 512 L 483 446 L 480 416 L 475 387 L 471 368 L 464 342 L 453 312 L 444 291 L 434 272 L 418 245 L 403 222 L 393 209 L 382 195 L 369 180 L 351 160 L 339 148 L 331 141 L 317 129 L 302 118 L 286 107 L 269 96 L 260 90 L 245 82 L 217 69 L 190 58 L 154 46 L 118 37 L 92 33 L 50 29 z" stroke-linecap="round" />
</g>
		<g transform="matrix(0.63 0 0 0.63 -32.17 -72.68)"  >
<path style="stroke: none; stroke-width: 1; stroke-dasharray: none; stroke-linecap: butt; stroke-dashoffset: 0; stroke-linejoin: miter; stroke-miterlimit: 4; fill: rgb(146,157,164); fill-rule: nonzero; opacity: 1;" vector-effect="non-scaling-stroke"  transform=" translate(54.5, -151.5)" d="M 0 0 L 4 1 L 2 3 L 22 4 L 23 5 L 24 44 L 24 171 L 25 176 L 46 187 L 56 195 L 63 201 L 67 208 L 71 224 L 73 237 L 73 251 L 66 270 L 59 280 L 52 288 L 41 297 L 29 302 L 21 303 L 1 303 L -18 299 L -28 294 L -36 285 L -44 274 L -49 265 L -49 262 L -51 262 L -55 257 L -59 255 L -161 254 L -177 253 L -181 251 L -182 235 L -181 227 L -180 226 L -122 225 L -56 223 L -45 203 L -38 194 L -31 188 L -15 179 L -5 176 L -5 5 L -3 3 z" stroke-linecap="round" />
</g>
		<g transform="matrix(0.63 0 0 0.63 7.36 -18.28)"  >
<path style="stroke: none; stroke-width: 1; stroke-dasharray: none; stroke-linecap: butt; stroke-dashoffset: 0; stroke-linejoin: miter; stroke-miterlimit: 4; fill: rgb(253,254,253); fill-rule: nonzero; opacity: 1;" vector-effect="non-scaling-stroke"  transform=" translate(-4.5, -33.5)" d="M 0 0 L 13 1 L 20 4 L 28 10 L 35 20 L 37 25 L 38 37 L 36 46 L 31 54 L 27 60 L 16 65 L 8 67 L -5 66 L -17 60 L -25 51 L -29 40 L -29 28 L -26 18 L -20 9 L -13 3 z" stroke-linecap="round" />
</g>
		<g transform="matrix(0.63 0 0 0.63 -45.08 -10.66)"  >
<path style="stroke: none; stroke-width: 1; stroke-dasharray: none; stroke-linecap: butt; stroke-dashoffset: 0; stroke-linejoin: miter; stroke-miterlimit: 4; fill: rgb(218,223,225); fill-rule: nonzero; opacity: 1;" vector-effect="non-scaling-stroke"  transform=" translate(33, -54.5)" d="M 0 0 L 0 3 L -9 19 L -14 27 L -80 29 L -138 30 L -139 41 L -139 54 L -135 55 L -117 56 L -17 57 L -11 61 L -9 65 L -7 65 L 0 79 L 13 95 L 19 99 L 27 102 L 43 105 L 63 105 L 77 103 L 75 105 L 59 109 L 46 109 L 29 105 L 16 100 L 7 93 L 0 86 L -8 75 L -14 63 L -14 61 L -80 62 L -96 63 L -129 63 L -135 60 L -143 55 L -143 31 L -141 26 L -55 26 L -15 25 L -6 8 z" stroke-linecap="round" />
</g>
		<g transform="matrix(0.63 0 0 0.63 6.94 -234.88)"  >
<path style="stroke: none; stroke-width: 1; stroke-dasharray: none; stroke-linecap: butt; stroke-dashoffset: 0; stroke-linejoin: miter; stroke-miterlimit: 4; fill: rgb(146,157,164); fill-rule: nonzero; opacity: 1;" vector-effect="non-scaling-stroke"  transform=" translate(0, -24)" d="M 0 0 L 2 0 L 2 2 L 8 4 L 8 6 L 13 7 L 14 9 L 14 42 L 12 48 L 4 48 L 0 48 L -10 48 L -13 46 L -14 42 L -14 6 L -6 2 L 1 3 z" stroke-linecap="round" />
</g>
		<g transform="matrix(0.63 0 0 0.63 160.73 134.48)"  >
<path style="stroke: none; stroke-width: 1; stroke-dasharray: none; stroke-linecap: butt; stroke-dashoffset: 0; stroke-linejoin: miter; stroke-miterlimit: 4; fill: rgb(146,157,164); fill-rule: nonzero; opacity: 1;" vector-effect="non-scaling-stroke"  transform=" translate(-14, -21)" d="M 0 0 L 15 0 L 17 2 L 17 5 L 22 6 L 27 11 L 32 15 L 34 19 L 34 32 L 32 37 L 29 40 L 27 40 L 26 42 L 26 40 L 24 40 L 24 38 L 20 37 L 20 40 L 15 39 L 15 36 L 12 36 L 12 33 L 9 32 L 9 30 L 4 30 L 2 34 L 2 31 L -1 31 L -1 28 L -3 28 L -6 18 L -6 10 L -5 6 L 0 3 L 0 5 L 2 5 z" stroke-linecap="round" />
</g>
		<g transform="matrix(0.63 0 0 0.63 -147.4 -170.84)"  >
<path style="stroke: none; stroke-width: 1; stroke-dasharray: none; stroke-linecap: butt; stroke-dashoffset: 0; stroke-linejoin: miter; stroke-miterlimit: 4; fill: rgb(146,157,164); fill-rule: nonzero; opacity: 1;" vector-effect="non-scaling-stroke"  transform=" translate(-11, -20.5)" d="M 0 0 L 3 0 L 6 3 L 6 1 L 13 2 L 17 4 L 19 8 L 24 11 L 29 15 L 31 23 L 30 34 L 28 37 L 26 37 L 26 39 L 20 39 L 18 41 L 13 40 L 10 38 L 7 33 L 4 34 L -5 28 L -8 22 L -9 18 L -9 11 L -6 4 z" stroke-linecap="round" />
</g>
		<g transform="matrix(0.63 0 0 0.63 6.94 196.36)"  >
<path style="stroke: none; stroke-width: 1; stroke-dasharray: none; stroke-linecap: butt; stroke-dashoffset: 0; stroke-linejoin: miter; stroke-miterlimit: 4; fill: rgb(146,157,164); fill-rule: nonzero; opacity: 1;" vector-effect="non-scaling-stroke"  transform=" translate(-2, -22)" d="M 0 0 L 9 1 L 16 7 L 16 41 L 12 43 L -1 44 L -11 42 L -12 41 L -12 6 L -6 2 z" stroke-linecap="round" />
</g>
		<g transform="matrix(0.63 0 0 0.63 -146.47 134.48)"  >
<path style="stroke: none; stroke-width: 1; stroke-dasharray: none; stroke-linecap: butt; stroke-dashoffset: 0; stroke-linejoin: miter; stroke-miterlimit: 4; fill: rgb(146,157,164); fill-rule: nonzero; opacity: 1;" vector-effect="non-scaling-stroke"  transform=" translate(5.5, -21)" d="M 0 0 L 3 1 L 4 3 L 7 0 L 8 4 L 11 4 L 14 15 L 12 26 L 4 33 L 3 35 L -1 36 L -11 40 L -17 39 L -18 42 L -24 42 L -25 38 L -25 20 L -23 13 L -18 9 L -8 7 L -6 3 L -2 2 L -4 7 L -1 7 z" stroke-linecap="round" />
</g>
		<g transform="matrix(0.63 0 0 0.63 -210.82 -18.68)"  >
<path style="stroke: none; stroke-width: 1; stroke-dasharray: none; stroke-linecap: butt; stroke-dashoffset: 0; stroke-linejoin: miter; stroke-miterlimit: 4; fill: rgb(146,157,164); fill-rule: nonzero; opacity: 1;" vector-effect="non-scaling-stroke"  transform=" translate(-5.5, -14)" d="M 0 0 L 9 1 L 14 2 L 18 1 L 26 4 L 26 6 L 28 6 L 29 11 L 29 22 L 25 27 L 12 28 L 2 28 L -11 26 L -16 21 L -18 14 L -16 7 L -12 3 L -8 1 z" stroke-linecap="round" />
</g>
		<g transform="matrix(0.63 0 0 0.63 223.86 -18.38)"  >
<path style="stroke: none; stroke-width: 1; stroke-dasharray: none; stroke-linecap: butt; stroke-dashoffset: 0; stroke-linejoin: miter; stroke-miterlimit: 4; fill: rgb(146,157,164); fill-rule: nonzero; opacity: 1;" vector-effect="non-scaling-stroke"  transform=" translate(-12, -13.5)" d="M 0 0 L 15 0 L 30 1 L 33 3 L 34 8 L 34 25 L 32 26 L 6 27 L -5 25 L -10 22 L -10 7 L -3 1 z" stroke-linecap="round" />
</g>
		<g transform="matrix(0.63 0 0 0.63 160.73 -171.47)"  >
<path style="stroke: none; stroke-width: 1; stroke-dasharray: none; stroke-linecap: butt; stroke-dashoffset: 0; stroke-linejoin: miter; stroke-miterlimit: 4; fill: rgb(146,157,164); fill-rule: nonzero; opacity: 1;" vector-effect="non-scaling-stroke"  transform=" translate(4, -18.5)" d="M 0 0 L 4 1 L 7 0 L 13 2 L 16 9 L 16 16 L 13 25 L 8 29 L 5 29 L 4 31 L -5 37 L -17 37 L -22 32 L -24 28 L -24 21 L -22 19 L -20 14 L -15 9 L -8 9 L -8 5 L -2 5 z" stroke-linecap="round" />
</g>
		<g transform="matrix(0.63 0 0 0.63 20.59 257.25)"  >
<path style="stroke: none; stroke-width: 1; stroke-dasharray: none; stroke-linecap: butt; stroke-dashoffset: 0; stroke-linejoin: miter; stroke-miterlimit: 4; fill: rgb(218,223,225); fill-rule: nonzero; opacity: 1;" vector-effect="non-scaling-stroke"  transform=" translate(115, -12.5)" d="M 0 0 L 4 1 L -30 12 L -56 18 L -77 22 L -108 25 L -165 25 L -193 22 L -218 18 L -234 14 L -234 13 L -224 14 L -206 17 L -197 17 L -190 18 L -173 18 L -129 19 L -99 18 L -85 17 L -47 11 L -10 3 z" stroke-linecap="round" />
</g>
		<g transform="matrix(0.63 0 0 0.63 -293.09 -11.98)"  >
<path style="stroke: none; stroke-width: 1; stroke-dasharray: none; stroke-linecap: butt; stroke-dashoffset: 0; stroke-linejoin: miter; stroke-miterlimit: 4; fill: rgb(218,223,225); fill-rule: nonzero; opacity: 1;" vector-effect="non-scaling-stroke"  transform=" translate(3, -105)" d="M 0 0 L 1 0 L 0 11 L -4 44 L -6 79 L -6 112 L -4 148 L -1 174 L 0 190 L 4 206 L 3 210 L -2 194 L -8 159 L -10 134 L -10 56 L -8 38 z" stroke-linecap="round" />
</g>
		<g transform="matrix(0.63 0 0 0.63 -210.5 -17.4)"  >
<path style="stroke: none; stroke-width: 1; stroke-dasharray: none; stroke-linecap: butt; stroke-dashoffset: 0; stroke-linejoin: miter; stroke-miterlimit: 4; fill: rgb(218,223,225); fill-rule: nonzero; opacity: 1;" vector-effect="non-scaling-stroke"  transform=" translate(-12, -20)" d="M 0 0 L 24 0 L 33 4 L 36 6 L 37 15 L 37 25 L 34 32 L 28 36 L 12 39 L 8 40 L 2 38 L -7 32 L -11 27 L -13 21 L -13 10 L -9 4 z M 6 4 L -2 5 L -8 8 L -11 12 L -12 20 L -8 28 L -1 31 L 8 32 L 18 32 L 31 31 L 35 26 L 35 15 L 34 10 L 32 10 L 32 8 L 23 5 L 16 6 L 15 5 z" stroke-linecap="round" />
</g>
		<g transform="matrix(0.63 0 0 0.63 159.17 -170.81)"  >
<path style="stroke: none; stroke-width: 1; stroke-dasharray: none; stroke-linecap: butt; stroke-dashoffset: 0; stroke-linejoin: miter; stroke-miterlimit: 4; fill: rgb(218,223,225); fill-rule: nonzero; opacity: 1;" vector-effect="non-scaling-stroke"  transform=" translate(6.5, -24.5)" d="M 0 0 L 8 1 L 14 6 L 15 10 L 13 9 L 13 7 L 5 6 L 3 7 L 0 6 L -2 10 L -8 10 L -8 14 L -15 14 L -17 18 L -20 20 L -22 25 L -23 26 L -23 33 L -21 39 L -17 41 L -5 41 L 5 34 L 11 31 L 14 29 L 13 33 L 5 43 L -1 47 L -9 49 L -18 47 L -22 44 L -22 41 L -26 39 L -28 34 L -28 26 L -25 21 L -19 10 L -16 7 L -13 7 L -12 5 L -6 4 L -5 2 L -5 4 z" stroke-linecap="round" />
</g>
		<g transform="matrix(0.63 0 0 0.63 8.28 -18.28)"  >
<path style="stroke: none; stroke-width: 1; stroke-dasharray: none; stroke-linecap: butt; stroke-dashoffset: 0; stroke-linejoin: miter; stroke-miterlimit: 4; fill: rgb(218,223,225); fill-rule: nonzero; opacity: 1;" vector-effect="non-scaling-stroke"  transform=" translate(-6, -33.5)" d="M 0 0 L 13 1 L 20 4 L 28 10 L 35 20 L 37 25 L 38 37 L 36 46 L 31 54 L 27 60 L 16 65 L 8 67 L -5 66 L -17 60 L -25 51 L -26 46 L -21 51 L -10 58 L -5 60 L 8 61 L 20 58 L 27 54 L 32 48 L 35 41 L 35 26 L 31 18 L 26 14 L 26 12 L 22 10 L 15 6 L 10 5 L -2 5 L -14 9 L -20 13 L -25 18 L -23 13 L -16 5 L -9 2 z" stroke-linecap="round" />
</g>
		<g transform="matrix(0.63 0 0 0.63 82.69 267.94)"  >
<path style="stroke: none; stroke-width: 1; stroke-dasharray: none; stroke-linecap: butt; stroke-dashoffset: 0; stroke-linejoin: miter; stroke-miterlimit: 4; fill: rgb(218,223,225); fill-rule: nonzero; opacity: 1;" vector-effect="non-scaling-stroke"  transform=" translate(95.5, -25.5)" d="M 0 0 L 3 1 L -20 12 L -57 27 L -95 39 L -122 45 L -154 49 L -178 51 L -194 51 L -194 50 L -159 47 L -131 43 L -97 35 L -54 22 L -21 9 L -8 3 z" stroke-linecap="round" />
</g>
		<g transform="matrix(0.63 0 0 0.63 222.94 -18.34)"  >
<path style="stroke: none; stroke-width: 1; stroke-dasharray: none; stroke-linecap: butt; stroke-dashoffset: 0; stroke-linejoin: miter; stroke-miterlimit: 4; fill: rgb(218,223,225); fill-rule: nonzero; opacity: 1;" vector-effect="non-scaling-stroke"  transform=" translate(-6.5, -18.5)" d="M 0 0 L 17 0 L 27 3 L 30 6 L 30 13 L 29 13 L 28 8 L 26 7 L 9 6 L -4 6 L -10 9 L -12 12 L -14 12 L -13 27 L -6 30 L 2 31 L 30 30 L 27 33 L 25 34 L 8 35 L 7 37 L -6 35 L -15 31 L -17 28 L -17 11 L -15 6 L -6 1 z" stroke-linecap="round" />
</g>
		<g transform="matrix(0.63 0 0 0.63 278.21 48.16)"  >
<path style="stroke: none; stroke-width: 1; stroke-dasharray: none; stroke-linecap: butt; stroke-dashoffset: 0; stroke-linejoin: miter; stroke-miterlimit: 4; fill: rgb(218,223,225); fill-rule: nonzero; opacity: 1;" vector-effect="non-scaling-stroke"  transform=" translate(16, -70.5)" d="M 0 0 L 1 0 L 1 12 L -6 60 L -13 88 L -25 124 L -32 141 L -33 138 L -26 119 L -15 83 L -11 69 L -5 38 L -1 10 z" stroke-linecap="round" />
</g>
		<g transform="matrix(0.63 0 0 0.63 -146.16 -160.9)"  >
<path style="stroke: none; stroke-width: 1; stroke-dasharray: none; stroke-linecap: butt; stroke-dashoffset: 0; stroke-linejoin: miter; stroke-miterlimit: 4; fill: rgb(218,223,225); fill-rule: nonzero; opacity: 1;" vector-effect="non-scaling-stroke"  transform=" translate(-18, -8.5)" d="M 0 0 L 6 3 L 11 6 L 12 4 L 15 7 L 16 10 L 20 12 L 24 11 L 26 10 L 31 11 L 31 9 L 34 6 L 35 1 L 36 1 L 36 8 L 33 14 L 26 17 L 17 17 L 9 11 L 0 2 z" stroke-linecap="round" />
</g>
		<g transform="matrix(0.63 0 0 0.63 -1.24 -114.9)"  >
<path style="stroke: none; stroke-width: 1; stroke-dasharray: none; stroke-linecap: butt; stroke-dashoffset: 0; stroke-linejoin: miter; stroke-miterlimit: 4; fill: rgb(218,223,225); fill-rule: nonzero; opacity: 1;" vector-effect="non-scaling-stroke"  transform=" translate(0, -83.5)" d="M 0 0 L 2 1 L 1 4 L -1 4 L -1 167 L -2 167 L -2 2 z" stroke-linecap="round" />
</g>
		<g transform="matrix(0.63 0 0 0.63 -80.09 269.75)"  >
<path style="stroke: none; stroke-width: 1; stroke-dasharray: none; stroke-linecap: butt; stroke-dashoffset: 0; stroke-linejoin: miter; stroke-miterlimit: 4; fill: rgb(218,223,225); fill-rule: nonzero; opacity: 1;" vector-effect="non-scaling-stroke"  transform=" translate(-44.5, -13.5)" d="M 0 0 L 6 1 L 30 10 L 64 20 L 89 26 L 89 27 L 78 26 L 61 22 L 31 13 L 12 6 L 0 1 z" stroke-linecap="round" />
</g>
		<g transform="matrix(0.63 0 0 0.63 -145.84 -175.85)"  >
<path style="stroke: none; stroke-width: 1; stroke-dasharray: none; stroke-linecap: butt; stroke-dashoffset: 0; stroke-linejoin: miter; stroke-miterlimit: 4; fill: rgb(218,223,225); fill-rule: nonzero; opacity: 1;" vector-effect="non-scaling-stroke"  transform=" translate(-6.5, -16.5)" d="M 0 0 L 7 1 L 13 9 L 19 13 L 23 18 L 25 26 L 25 33 L 24 33 L 21 19 L 15 14 L 11 12 L 9 8 L -1 5 L -1 7 L -4 6 L -4 4 L -10 7 L -12 6 L -4 1 z" stroke-linecap="round" />
</g>
		<g transform="matrix(0.63 0 0 0.63 160.69 145.04)"  >
<path style="stroke: none; stroke-width: 1; stroke-dasharray: none; stroke-linecap: butt; stroke-dashoffset: 0; stroke-linejoin: miter; stroke-miterlimit: 4; fill: rgb(216,221,223); fill-rule: nonzero; opacity: 1;" vector-effect="non-scaling-stroke"  transform=" translate(-10, -8)" d="M 0 0 L 5 0 L 9 5 L 12 6 L 11 9 L 16 10 L 16 7 L 20 8 L 20 10 L 22 10 L 19 16 L 15 15 L 15 13 L 11 12 L 8 8 L 1 7 L -2 4 z" stroke-linecap="round" />
</g>
		<g transform="matrix(0.63 0 0 0.63 8.5 -167.48)"  >
<path style="stroke: none; stroke-width: 1; stroke-dasharray: none; stroke-linecap: butt; stroke-dashoffset: 0; stroke-linejoin: miter; stroke-miterlimit: 4; fill: rgb(217,222,224); fill-rule: nonzero; opacity: 1;" vector-effect="non-scaling-stroke"  transform=" translate(-5.5, -4)" d="M 0 0 L 9 0 L 17 5 L 16 8 L -5 7 L -3 4 L -6 2 z" stroke-linecap="round" />
</g>
		<g transform="matrix(0.63 0 0 0.63 42.54 -5.82)"  >
<path style="stroke: none; stroke-width: 1; stroke-dasharray: none; stroke-linecap: butt; stroke-dashoffset: 0; stroke-linejoin: miter; stroke-miterlimit: 4; fill: rgb(218,223,225); fill-rule: nonzero; opacity: 1;" vector-effect="non-scaling-stroke"  transform=" translate(7, -22.5)" d="M 0 0 L 1 0 L 1 20 L -3 30 L -10 41 L -15 45 L -13 40 L -8 33 L -3 20 L -1 14 z" stroke-linecap="round" />
</g>
		<g transform="matrix(0.63 0 0 0.63 -148.39 123.47)"  >
<path style="stroke: none; stroke-width: 1; stroke-dasharray: none; stroke-linecap: butt; stroke-dashoffset: 0; stroke-linejoin: miter; stroke-miterlimit: 4; fill: rgb(215,220,222); fill-rule: nonzero; opacity: 1;" vector-effect="non-scaling-stroke"  transform=" translate(2.5, -5.5)" d="M 0 0 L 3 0 L 3 3 L 6 2 L 7 7 L 4 11 L 4 9 L 2 9 L 4 4 L 0 6 L -2 10 L -8 11 L -12 10 L -6 6 L -5 2 z" stroke-linecap="round" />
</g>
		<g transform="matrix(0.63 0 0 0.63 -77.38 -306.53)"  >
<path style="stroke: none; stroke-width: 1; stroke-dasharray: none; stroke-linecap: butt; stroke-dashoffset: 0; stroke-linejoin: miter; stroke-miterlimit: 4; fill: rgb(218,223,225); fill-rule: nonzero; opacity: 1;" vector-effect="non-scaling-stroke"  transform=" translate(19, -6.5)" d="M 0 0 L 5 0 L 1 2 L -19 8 L -36 12 L -43 13 L -40 11 L -12 3 z" stroke-linecap="round" />
</g>
		<g transform="matrix(0.63 0 0 0.63 146.33 -261.21)"  >
<path style="stroke: none; stroke-width: 1; stroke-dasharray: none; stroke-linecap: butt; stroke-dashoffset: 0; stroke-linejoin: miter; stroke-miterlimit: 4; fill: rgb(218,223,225); fill-rule: nonzero; opacity: 1;" vector-effect="non-scaling-stroke"  transform=" translate(-16, -9)" d="M 0 0 L 9 3 L 27 13 L 32 18 L 27 16 L 3 3 z" stroke-linecap="round" />
</g>
		<g transform="matrix(0.63 0 0 0.63 8.18 210.32)"  >
<path style="stroke: none; stroke-width: 1; stroke-dasharray: none; stroke-linecap: butt; stroke-dashoffset: 0; stroke-linejoin: miter; stroke-miterlimit: 4; fill: rgb(208,214,217); fill-rule: nonzero; opacity: 1;" vector-effect="non-scaling-stroke"  transform=" translate(8, -2.5)" d="M 0 0 L 3 1 L -1 4 L -15 5 L -19 4 L -19 1 L -7 1 z" stroke-linecap="round" />
</g>
		<g transform="matrix(0.63 0 0 0.63 160.98 122.84)"  >
<path style="stroke: none; stroke-width: 1; stroke-dasharray: none; stroke-linecap: butt; stroke-dashoffset: 0; stroke-linejoin: miter; stroke-miterlimit: 4; fill: rgb(213,218,220); fill-rule: nonzero; opacity: 1;" vector-effect="non-scaling-stroke"  transform=" translate(-7.5, -5.5)" d="M 0 0 L 5 0 L 5 2 L 10 2 L 15 7 L 16 11 L 15 9 L 10 8 L 8 4 L -1 3 z" stroke-linecap="round" />
</g>
		<g transform="matrix(0.63 0 0 0.63 -139.66 121.58)"  >
<path style="stroke: none; stroke-width: 1; stroke-dasharray: none; stroke-linecap: butt; stroke-dashoffset: 0; stroke-linejoin: miter; stroke-miterlimit: 4; fill: rgb(218,223,225); fill-rule: nonzero; opacity: 1;" vector-effect="non-scaling-stroke"  transform=" translate(-2.5, -3.5)" d="M 0 0 L 6 2 L 8 7 L 5 7 L 3 4 L 1 7 L -1 6 L 0 4 L -3 3 z" stroke-linecap="round" />
</g>
		<g transform="matrix(0.63 0 0 0.63 -138.73 140.34)"  >
<path style="stroke: none; stroke-width: 1; stroke-dasharray: none; stroke-linecap: butt; stroke-dashoffset: 0; stroke-linejoin: miter; stroke-miterlimit: 4; fill: rgb(215,220,222); fill-rule: nonzero; opacity: 1;" vector-effect="non-scaling-stroke"  transform=" translate(4, -4.5)" d="M 0 0 L 0 3 L -5 8 L -8 9 L -6 5 z" stroke-linecap="round" />
</g>
</g>
</g>
</svg>